<svg width="43" height="41" viewBox="0 0 43 41" fill="none" xmlns="http://www.w3.org/2000/svg">
<rect x="20.061" y="0.503723" width="11.1399" height="5.76429" fill="#1E1E28"/>
<rect x="25.631" y="6.26801" width="11.1399" height="5.76429" fill="#1E1E28"/>
<rect x="30.3759" y="12.0323" width="11.1399" height="5.76429" fill="#1E1E28"/>
<rect x="22.1241" y="40.8537" width="10.9257" height="5.58961" transform="rotate(-180 22.1241 40.8537)" fill="#1E1E28"/>
<rect x="16.6614" y="35.2642" width="10.9257" height="5.58961" transform="rotate(-180 16.6614 35.2642)" fill="#1E1E28"/>
<rect x="12.0077" y="29.6745" width="10.9257" height="5.58961" transform="rotate(-180 12.0077 29.6745)" fill="#1E1E28"/>
<rect x="5.73547" y="17.7966" width="12.5766" height="4.85587" transform="rotate(90 5.73547 17.7966)" fill="#1E1E28"/>
<rect width="12.9606" height="4.95578" transform="matrix(0.0628301 -0.998024 0.996379 0.0850243 34.5192 27.1849)" fill="#1E1E28"/>
<rect width="10.126" height="5.76025" transform="matrix(0.996379 0.0850243 -0.0628301 0.998024 1.2417 0.503723)" fill="#1E1E28"/>
<rect width="10.126" height="5.76025" transform="matrix(0.996379 0.0850243 -0.0628301 0.998024 6.37305 5.99889)" fill="#1E1E28"/>
<rect width="10.126" height="5.76025" transform="matrix(0.996379 0.0850243 -0.0628301 0.998024 11.5047 11.494)" fill="#1E1E28"/>
<rect width="10.126" height="5.76025" transform="matrix(0.996379 0.0850243 -0.0628301 0.998024 16.6364 16.9893)" fill="#1E1E28"/>
<rect width="10.126" height="5.76025" transform="matrix(0.996379 0.0850243 -0.0628301 0.998024 21.7678 22.4844)" fill="#1E1E28"/>
<rect width="10.126" height="5.76025" transform="matrix(0.996379 0.0850243 -0.0628301 0.998024 26.8994 27.9796)" fill="#1E1E28"/>
<rect width="10.126" height="5.76025" transform="matrix(0.996379 0.0850243 -0.0628301 0.998024 32.031 33.4747)" fill="#1E1E28"/>
</svg>
