<svg width="42" height="41" viewBox="0 0 42 41" fill="none" xmlns="http://www.w3.org/2000/svg">
<rect width="11.2694" height="5.76429" transform="matrix(-1 0 0 1 22.5656 0.598526)" fill="#1E1E28"/>
<rect width="11.2694" height="5.76429" transform="matrix(-1 0 0 1 16.9308 6.36281)" fill="#1E1E28"/>
<rect width="11.2694" height="5.76429" transform="matrix(-1 0 0 1 12.1309 12.1271)" fill="#1E1E28"/>
<rect width="11.0527" height="5.58961" transform="matrix(1 0 0 -1 20.4785 40.9485)" fill="#1E1E28"/>
<rect width="11.0527" height="5.58961" transform="matrix(1 0 0 -1 26.0049 35.359)" fill="#1E1E28"/>
<rect width="11.0527" height="5.58961" transform="matrix(1 0 0 -1 30.7126 29.7693)" fill="#1E1E28"/>
<rect width="12.5766" height="4.91232" transform="matrix(0 1 1 0 37.0577 17.8914)" fill="#1E1E28"/>
<rect width="12.9612" height="5.01298" transform="matrix(-0.0635576 -0.997978 -0.996461 0.0840542 7.93939 27.2797)" fill="#1E1E28"/>
<rect width="10.2429" height="5.76051" transform="matrix(-0.996461 0.0840542 0.0635576 0.997978 41.6038 0.598526)" fill="#1E1E28"/>
<rect width="10.2429" height="5.76051" transform="matrix(-0.996461 0.0840542 0.0635576 0.997978 36.4127 6.09369)" fill="#1E1E28"/>
<rect width="10.2429" height="5.76051" transform="matrix(-0.996461 0.0840542 0.0635576 0.997978 31.2214 11.5888)" fill="#1E1E28"/>
<rect width="10.2429" height="5.76051" transform="matrix(-0.996461 0.0840542 0.0635576 0.997978 26.0302 17.0841)" fill="#1E1E28"/>
<rect width="10.2429" height="5.76051" transform="matrix(-0.996461 0.0840542 0.0635576 0.997978 20.8391 22.5792)" fill="#1E1E28"/>
<rect width="10.2429" height="5.76051" transform="matrix(-0.996461 0.0840542 0.0635576 0.997978 15.6478 28.0744)" fill="#1E1E28"/>
<rect width="10.2429" height="5.76051" transform="matrix(-0.996461 0.0840542 0.0635576 0.997978 10.4566 33.5695)" fill="#1E1E28"/>
</svg>
