<svg width="49" height="45" viewBox="0 0 49 45" fill="none" xmlns="http://www.w3.org/2000/svg">
<rect x="0.320435" y="3.0957" width="12" height="9.73716" fill="#1E1E28"/>
<rect x="6.32043" y="7.96429" width="12" height="9.73716" fill="#1E1E28"/>
<rect x="12.3204" y="12.8329" width="12" height="9.73716" fill="#1E1E28"/>
<rect x="18.3204" y="17.7015" width="12" height="9.73716" fill="#1E1E28"/>
<rect x="24.3204" y="22.57" width="12" height="9.73716" fill="#1E1E28"/>
<rect x="30.3204" y="27.4386" width="12" height="9.73716" fill="#1E1E28"/>
<rect x="36.3204" y="32.3072" width="12" height="9.73716" fill="#1E1E28"/>
<rect width="10.6339" height="10.9906" transform="matrix(0.0782848 0.996504 -0.998445 0.0614614 46.2088 1.26299)" fill="#1E1E28"/>
<rect width="10.6339" height="10.9906" transform="matrix(0.0782848 0.996504 -0.998445 0.0614614 40.6028 6.48663)" fill="#1E1E28"/>
<rect width="10.634" height="10.9906" transform="matrix(0.0782848 0.996504 -0.998445 0.0614614 34.9969 11.7103)" fill="#1E1E28"/>
<rect width="10.6339" height="10.9906" transform="matrix(0.0782848 0.996504 -0.998445 0.0614614 29.3909 16.9339)" fill="#1E1E28"/>
<rect width="10.6339" height="10.9906" transform="matrix(0.0782848 0.996504 -0.998445 0.0614614 23.7849 22.1575)" fill="#1E1E28"/>
<rect width="10.6339" height="10.9906" transform="matrix(0.0782848 0.996504 -0.998445 0.0614614 18.1789 27.3812)" fill="#1E1E28"/>
<rect width="10.6339" height="10.9906" transform="matrix(0.0782848 0.996504 -0.998445 0.0614614 12.5729 32.6048)" fill="#1E1E28"/>
</svg>
