<svg width="50" height="45" viewBox="0 0 50 45" fill="none" xmlns="http://www.w3.org/2000/svg">
<rect width="48.5" height="13.3013" transform="matrix(1 0 0 -1 0.960999 44.7023)" fill="#1F1F28"/>
<rect width="12.5" height="11.7665" transform="matrix(1 0 0 -1 0.960999 31.4011)" fill="#1F1F28"/>
<rect width="12.7897" height="11.5" transform="matrix(0 -1 -1 0 49.5 31.4011)" fill="#1F1F28"/>
<rect width="12.5" height="11.7665" transform="matrix(1 0 0 -1 7.211 25.5179)" fill="#1F1F28"/>
<rect width="12.7897" height="11.5" transform="matrix(0 -1 -1 0 43.4037 25.3514)" fill="#1F1F28"/>
<rect width="12.5" height="11.7665" transform="matrix(1 0 0 -1 13.461 19.6346)" fill="#1F1F28"/>
<rect width="12.7897" height="11.5" transform="matrix(0 -1 -1 0 37.3074 19.3017)" fill="#1F1F28"/>
<rect width="12.5" height="11.7665" transform="matrix(1 0 0 -1 19.711 13.7514)" fill="#1F1F28"/>
<rect width="12.7897" height="11.5" transform="matrix(0 -1 -1 0 31.211 13.252)" fill="#1F1F28"/>
</svg>
